<?xml version="1.0" encoding="utf-8"?>
<!-- Generator: Adobe Illustrator 16.0.0, SVG Export Plug-In . SVG Version: 6.00 Build 0)  -->
<!DOCTYPE svg PUBLIC "-//W3C//DTD SVG 1.1//EN" "http://www.w3.org/Graphics/SVG/1.1/DTD/svg11.dtd">
<svg version="1.1" id="Layer_1" xmlns="http://www.w3.org/2000/svg" xmlns:xlink="http://www.w3.org/1999/xlink" x="0px" y="0px"
	 width="900px" height="900px" viewBox="0 0 900 900" enable-background="new 0 0 900 900" xml:space="preserve">
<path fill="#FFFFFF" d="M744.676,321.822c0,0-2.195-297.445-294.476-321.786V0c-0.067,0.006-0.132,0.013-0.199,0.018
	c-0.067-0.005-0.133-0.012-0.199-0.018v0.036c-292.28,24.341-294.478,321.786-294.478,321.786
	c-2.575,155.046,276.267,553.092,294.222,578.56v1.29c0,0,0.157-0.223,0.455-0.645c0.299,0.422,0.456,0.645,0.456,0.645v-1.29
	C468.412,874.914,747.254,476.868,744.676,321.822z M450,360.117c-55.345,0-100.21-44.865-100.21-100.209
	c0-55.344,44.865-100.21,100.21-100.21c55.344,0,100.213,44.866,100.213,100.21C550.213,315.252,505.344,360.117,450,360.117z"/>
</svg>
